<svg xmlns="http://www.w3.org/2000/svg" viewBox="0 0 64 64">
  <!-- Linh vật: mèo đọc sách -->
  <g stroke="#6b3a22" stroke-width="2.2" stroke-linejoin="round" stroke-linecap="round">
    <path d="M13 25 12 7.5q.2-2 2-1.2L28.5 14.5z" fill="#f2a965"/>
    <path d="M51 25 52 7.5q-.2-2-2-1.2L35.5 14.5z" fill="#f2a965"/>
    <ellipse cx="32" cy="29.5" rx="21" ry="17.5" fill="#fff3e2"/>
  </g>
  <path d="M16.2 18.5 15.8 11l6.6 4.2z M47.8 18.5l.4-7.5-6.6 4.2z" fill="#f8c9a6"/>
  <path d="M28.6 13.6v3.6M32 13v4.4M35.4 13.6v3.6" stroke="#e8954f" stroke-width="2" stroke-linecap="round"/>
  <ellipse cx="24.5" cy="28.5" rx="2.7" ry="3.1" fill="#3b2418"/>
  <ellipse cx="39.5" cy="28.5" rx="2.7" ry="3.1" fill="#3b2418"/>
  <circle cx="25.5" cy="27.3" r="1" fill="#fff"/>
  <circle cx="40.5" cy="27.3" r="1" fill="#fff"/>
  <ellipse cx="18.6" cy="34" rx="3.2" ry="2" fill="#f6a5a0" opacity=".75"/>
  <ellipse cx="45.4" cy="34" rx="3.2" ry="2" fill="#f6a5a0" opacity=".75"/>
  <path d="M30.6 32.4h2.8L32 34z" fill="#d9776a" stroke="#d9776a" stroke-width="1" stroke-linejoin="round"/>
  <path d="M29.4 35.6q1.3 1.5 2.6 0 1.3 1.5 2.6 0" fill="none" stroke="#6b3a22" stroke-width="1.6" stroke-linecap="round"/>
  <!-- Quyển sách -->
  <path d="M32 45C25 41.5 16 41.5 9.5 44v14.5c6.5-2.5 15.5-2.5 22.5 1 7-3.5 16-3.5 22.5-1V44C48 41.5 39 41.5 32 45z" fill="#b8553a" stroke="#6b3a22" stroke-width="2.2" stroke-linejoin="round"/>
  <path d="M32 46.6c-6-3-14-3-19.5-1V56c5.5-1.8 13.5-1.8 19.5 1 6-2.8 14-2.8 19.5-1V45.6c-5.5-2-13.5-2-19.5 1z" fill="#fffaf1"/>
  <path d="M32 46.6V57" stroke="#6b3a22" stroke-width="1.6"/>
  <path d="M16 49q5-1.2 11 0M16 52.2q5-1.2 11 0M37 49q5-1.2 11 0M37 52.2q5-1.2 11 0" fill="none" stroke="#e3c7a8" stroke-width="1.3" stroke-linecap="round"/>
  <g fill="#fff3e2" stroke="#6b3a22" stroke-width="2">
    <ellipse cx="21" cy="44.5" rx="4.2" ry="3.3"/>
    <ellipse cx="43" cy="44.5" rx="4.2" ry="3.3"/>
  </g>
</svg>
